<?xml version="1.0" encoding="utf-8"?>
<!-- Generator: Adobe Illustrator 23.0.3, SVG Export Plug-In . SVG Version: 6.00 Build 0)  -->
<svg version="1.1" id="Layer_1" xmlns="http://www.w3.org/2000/svg" xmlns:xlink="http://www.w3.org/1999/xlink" x="0px" y="0px"
	 viewBox="0 0 48 55" style="enable-background:new 0 0 48 55;" xml:space="preserve">
<style type="text/css">
	.st0{fill:#FFFFFF;}
</style>
<title>Bell v4.6</title>
<desc>Created with Sketch.</desc>
<g>
	<title>Layer 1</title>
	<path id="svg_3" class="st0" d="M19.5,6.6C11.7,8.6,6,15.6,6,24v12c0,1.1-0.9,2-2,2c-2.2,0-4,1.8-4,4v3c0,0.6,0.4,1,1,1h46
		c0.6,0,1-0.5,1-1v-3c0-2.2-1.8-4-4-4c-1.1,0-2-0.9-2-2V24c0-8.4-5.7-15.4-13.5-17.4V4.5C28.5,2,26.5,0,24,0c-2.5,0-4.5,2-4.5,4.5
		C19.5,4.5,19.5,6.6,19.5,6.6z M17,48h14c0,3.9-3.1,7-7,7S17,51.9,17,48z"/>
</g>
</svg>
