<?xml version="1.0" encoding="utf-8"?>
<!-- Generator: Adobe Illustrator 23.0.3, SVG Export Plug-In . SVG Version: 6.00 Build 0)  -->
<svg version="1.1" id="Layer_1" xmlns="http://www.w3.org/2000/svg" xmlns:xlink="http://www.w3.org/1999/xlink" x="0px" y="0px"
	 viewBox="0 0 90 73" style="enable-background:new 0 0 90 73;" xml:space="preserve">
<style type="text/css">
	.st0{fill:#231F20;}
	.st1{fill:#FFFFFF;}
</style>
<title>37</title>
<path class="st0" d="M15.5,71.7c0-3.6,0-6.7,0-10.1c-3.4,0-6.6,0-10,0c0-9.3,0-18.4,0-27.7c2.5,0,4.9,0,7.7,0c0-10.8,0-21.4,0-32.2
	c22.6,0,44.9,0,67.3,0c0,16.1,0,32.3,0,48.8c-3,0-6.1,0-9.2,0c-2.9,0-2.9,0-2.9,2.8c0,3,0,5.9,0,9.3c-0.9-0.5-1.6-0.8-2.2-1.2
	c-5.2-3.1-10.4-6.2-15.5-9.5c-2.1-1.4-4.2-1.8-6.9-1.3c0,3.5,0,7,0,10.7c-3.2,0-6.1-0.1-9,0.1c-1.5,0.1-3,0.5-4.3,1.2
	c-4.2,2.4-8.4,5-12.6,7.6C17.3,70.6,16.7,71,15.5,71.7z M62.3,51.9c0-1.8,0-3,0-4.2c0-3.5-0.5-3.3,3.3-3.3c2.9,0,5.9,0,8.8,0
	c0.1-0.6,0.2-0.8,0.2-1c0-11.4,0-22.8,0.1-34.1c0-1.8-1-1.7-2.2-1.7c-16.9,0-33.9,0-50.8,0c-1.7,0-2.3,0.4-2.3,2.2
	c0.1,10.9,0.1,21.7,0,32.6c0,1.8,0.6,2.2,2.3,2.2c8.8-0.1,17.5-0.1,26.3,0c1.3,0,2.7,0.4,3.9,1.1C55.2,47.5,58.5,49.6,62.3,51.9z"/>
<path class="st1" d="M62.3,51.9c-3.9-2.3-7.2-4.4-10.6-6.4c-1.1-0.6-2.6-1.1-3.9-1.1c-8.8-0.1-17.5-0.1-26.3,0
	c-1.7,0-2.3-0.4-2.3-2.2c0.1-10.9,0.1-21.7,0-32.6c0-1.8,0.6-2.2,2.3-2.2c16.9,0.1,33.9,0,50.8,0c1.2,0,2.2-0.1,2.2,1.7
	c-0.1,11.4,0,22.8-0.1,34.1c0,0.2-0.1,0.4-0.2,1c-2.9,0-5.8,0-8.8,0c-3.8,0-3.2-0.3-3.3,3.3C62.3,48.9,62.3,50.2,62.3,51.9z
	 M31.6,32.1c3.4,0,6.1-2.6,6.1-6c0-3.4-2.7-6.1-6-6.2c-3.3,0-6.1,2.8-6.2,6.1C25.5,29.3,28.2,32,31.6,32.1z M62.2,32.1
	c3.4,0,6.1-2.6,6.2-6c0-3.4-2.6-6.2-6-6.2c-3.3-0.1-6.2,2.7-6.2,6C56.1,29.2,58.9,32,62.2,32.1z M46.9,32.1c3.4,0.1,6.2-2.5,6.2-5.9
	c0.1-3.4-2.6-6.2-5.9-6.3c-3.3-0.1-6.2,2.7-6.3,6C40.8,29.2,43.5,32,46.9,32.1z"/>
<path class="st0" d="M31.6,32.1c-3.4,0-6.1-2.8-6.1-6.1c0-3.3,2.9-6.1,6.2-6.1c3.4,0,6.1,2.8,6,6.2C37.7,29.4,35.1,32.1,31.6,32.1z"
	/>
<path class="st0" d="M62.2,32.1c-3.4,0-6.1-2.8-6-6.2c0.1-3.3,2.9-6.1,6.2-6c3.4,0.1,6,2.9,6,6.2C68.4,29.5,65.7,32.1,62.2,32.1z"/>
<path class="st0" d="M46.9,32.1c-3.4-0.1-6.1-2.9-6-6.2c0.1-3.3,3-6.1,6.3-6c3.4,0.1,6,2.9,5.9,6.3C53,29.5,50.3,32.1,46.9,32.1z"/>
</svg>
