<?xml version="1.0" encoding="utf-8"?>
<!-- Generator: Adobe Illustrator 23.0.3, SVG Export Plug-In . SVG Version: 6.00 Build 0)  -->
<svg version="1.1" id="Layer_1" xmlns="http://www.w3.org/2000/svg" xmlns:xlink="http://www.w3.org/1999/xlink" x="0px" y="0px"
	 viewBox="0 0 88 88" style="enable-background:new 0 0 88 88;" xml:space="preserve">
<style type="text/css">
	.st0{fill:#FFFFFF;}
</style>
<path class="st0" d="M86,22H62.9c1.9-2.1,3.1-4.9,3.1-8c0-6.6-5.4-12-12-12c-3.9,0-7.4,1.9-9.6,4.8C42.2,2.8,37.9,0,33,0
	c-7.2,0-13,5.8-13,13c0,3.5,1.4,6.7,3.6,9H2c-1,0-2,1-2,2v18c0,1,1,2,2,2h4v42c0,1,1,2,2,2h72c1,0,2-1,2-2V44h4c1,0,2-1,2-2V24
	C88,23,87,22,86,22z M46,14c0-4.4,3.6-8,8-8s8,3.6,8,8s-3.6,8-8,8h-8V14z M33,4c5,0,9,4,9,9c0,3,0,6,0,9h-9c-5,0-9-4-9-9S28,4,33,4z
	 M34,84H10V44h24V84z M34,40H4V26c10,0,20,0,30,0V40z M50,84H38V44h12V84z M50,40H38V26c4,0,8,0,12,0V40z M78,84H54V44h24V84z
	 M84,40H54V26h30V40z"/>
</svg>
