<?xml version="1.0" encoding="utf-8"?>
<!-- Generator: Adobe Illustrator 23.0.3, SVG Export Plug-In . SVG Version: 6.00 Build 0)  -->
<svg version="1.1" id="Layer_1" xmlns="http://www.w3.org/2000/svg" xmlns:xlink="http://www.w3.org/1999/xlink" x="0px" y="0px"
	 viewBox="0 0 809.1 789.1" style="enable-background:new 0 0 809.1 789.1;" xml:space="preserve">
<style type="text/css">
	.st0{fill:#FFFFFF;}
</style>
<g>
	<path class="st0" d="M305.5,731.8c0-11.2,0-22.3,0-33.5c0-1.8,0-3.6-0.6-5.4c-0.7-2.2-1.8-2.7-4.1-2.2c-16.1,3.3-32.2,5.3-48.8,3.8
		c-10.7-0.9-21.1-2.4-31.1-5.9c-22.1-7.9-39.1-21.5-49.3-43.1c-4-8.4-7.2-17.1-12-25.2c-7.2-12.2-15.9-22.9-27.1-31.6
		c-6.4-5-13.7-8.8-19.1-15c-4.4-5.1-3.2-10.4,3.2-12.2c5.7-1.7,11.6-1.8,17.3-0.8c21.7,3.6,38,15.7,50.8,33
		c7.8,10.5,13.9,22.2,23.8,31.2c15.4,14,33.6,20.6,54.1,20.2c13.8-0.3,27.2-3.6,40-9c1.8-0.8,3.5-1.5,3.9-4
		c3.2-17.7,9.1-34.3,21.5-47.9c2.7-3,1-3.6-2.1-4c-7.9-1-15.7-2.1-23.5-3.5c-13-2.4-25.8-5.9-38.5-10c-22.8-7.4-43.3-18.6-61.1-34.6
		c-19.7-17.8-32.6-40.1-41.3-64.9c-7.7-22.1-10.6-45.1-11.9-68.3c-1.1-18.7,0.1-37.4,4.8-55.8c6.2-24.1,17.5-45.4,34-64
		c1.9-2.1,1.9-3.8,1.1-6.2c-5.7-17.9-8.2-36-6.3-54.9c1.5-15,5-29.4,9.7-43.6c0.8-2.5,1.9-3.7,4.7-4.3c4.7-1,9.2-0.3,13.8,0.2
		c19.1,1.7,36.3,9.3,53.2,17.4c13,6.2,25.3,14,37.3,22c1.6,1,2.8,1.7,5,1.2c12.2-3,24.4-6,36.9-7.8c15.4-2.2,30.8-4.3,46.4-4.6
		c22.4-0.5,44.9,0,67.1,3.2c14.7,2.1,29.4,4.9,43.8,9c2.7,0.8,4.7,0.3,6.9-1.2c19.1-12.9,39-24.1,60.7-32.1
		c12.5-4.6,25.4-7.7,38.8-7.8c3,0,6.5-0.2,8,3.6c6.3,15.5,9.7,31.7,10.8,48.3c1.2,17.3-0.5,34.5-6.3,51.1c-1.1,3.1-0.4,5.6,2,8.1
		c14.1,15.4,24,33.5,30.3,53.3c7.8,24.4,8.5,49.5,6.3,74.9c-1.4,16.6-3.6,32.9-8.1,48.9c-6.8,24-17.4,45.9-34.2,64.5
		c-19.2,21.2-43.1,35.1-70,44.3c-21,7.2-42.6,11.1-64.5,14c-0.9,0.1-2.2-0.3-2.7,0.8c-0.6,1.4,0.8,2,1.5,2.8
		c4.5,5.2,8.9,10.4,11.9,16.5c7.9,15.9,11.8,32.9,11.8,50.4c0,25.1,1,50.3-0.7,75.4c-0.8,11.8,0.2,23.7-0.2,35.5
		c-0.7,20,16.5,25.7,29.6,21.3c23-7.6,44.8-17.8,66-29.4c29.6-16.2,56.4-36.1,80.9-59.3c8-7.5,15.6-15.4,23-23.6
		c10-11.1,19.2-22.9,27.9-35c15.6-21.6,28.6-44.8,39.6-69.1c6.4-14.2,11.5-29,16.2-43.9c6.8-21.4,11.4-43.2,14.3-65.5
		c1.7-13.3,3.1-26.7,3.5-40c0.6-16.9,0.2-33.9-1.7-50.8c-1.7-15-3.7-29.9-6.7-44.6c-3.1-15.3-7.4-30.3-12.3-45.1
		c-6-18.4-13.5-36.1-22.2-53.3c-6-11.8-12.8-23.2-19.9-34.5c-13.6-21.6-29.4-41.4-46.8-59.9c-21.5-22.8-45.6-42.5-71.9-59.7
		c-21.9-14.4-45-26.3-69.3-36.1c-20.6-8.3-41.8-14.9-63.7-19.5c-19-4-38.1-7.3-57.4-8.3c-14.4-0.7-28.7-1.6-43.3-0.6
		c-16,1.1-32.1,2.1-47.9,4.6c-24.6,3.8-48.7,10-72.1,18.6c-21.9,8-42.9,17.8-63.1,29.3c-29.8,17-56.6,37.6-81.3,61.3
		c-10.2,9.8-19.4,20.5-28.5,31.3c-18.7,22.4-34.4,46.8-47.8,72.7C33,252.4,22,283.6,14.5,316.1c-6.5,28-9.1,56.5-10,85.2
		c-0.4,12.4,1.1,24.8,1.8,37.3c0.7,12.1,2.3,24.1,4.4,35.9c4.3,23.7,10.5,46.9,19,69.5c8.6,22.9,19.1,45,31.8,65.9
		c12.1,19.9,25.7,38.6,40.9,56.3c15.6,18.1,32.7,34.5,51.1,49.5c16.6,13.5,34.4,25.3,53.1,36c22.6,12.9,46.1,23.7,70.8,31.6
		c13.9,4.5,28.4-3.4,28-20C305.3,752.8,305.5,742.3,305.5,731.8z M264,663.3c4.3,0,8.5-3,8.4-6.1c-0.1-3-4.4-5.9-8.7-5.9
		c-4.8,0.1-8.2,2.5-8.3,5.9C255.5,661.2,258.5,663.3,264,663.3z M229.7,646.3c-3.9,0-7.1,2.1-7.1,4.7c0,3.6,5.1,7.4,9.9,7.3
		c3.4-0.1,6.9-0.2,7-5C239.5,649.3,235.4,646.4,229.7,646.3z M293.8,659.4c0.8-0.1,2.4-0.1,3.7-0.7c3-1.3,5.8-3.3,4.8-7.1
		c-0.9-3.4-3.9-4.3-7.1-4.2c-1.3,0-2.6,0.4-3.8,0.9c-3,1.2-6.2,3-5.6,6.6C286.3,658.6,289.8,659.2,293.8,659.4z M210.5,637.4
		c0-3.7-5.2-9.1-9.4-8.9c-3,0.2-4.8,1.8-4.7,5.2c0.1,4.1,5.1,9.5,9.2,9.6C209.3,643.4,210.6,641.2,210.5,637.4z M177.5,611.4
		c0,4.4,4.2,8.9,8.3,8.9c3.3,0,4.4-2.1,4.4-4.8c0.1-4.6-4.1-9.2-8.1-9.2C178.9,606.3,177.5,608.3,177.5,611.4z M173.5,593.4
		c-0.1-3.6-4.7-8.1-7.9-8c-3.1,0.1-3.1,2.3-3.1,4.5c0,4,3.3,7.3,7,7.4C172.5,597.4,173.7,595.9,173.5,593.4z"/>
	<path class="st0" d="M305.5,731.8c0,10.5-0.2,21,0,31.5c0.4,16.6-14,24.5-28,20c-24.7-8-48.2-18.7-70.8-31.6
		c-18.7-10.7-36.5-22.6-53.1-36c-18.5-14.9-35.6-31.4-51.1-49.5c-15.2-17.7-28.8-36.5-40.9-56.3C48.9,589,38.4,566.9,29.8,544
		c-8.5-22.6-14.7-45.8-19-69.5c-2.1-11.9-3.8-23.8-4.4-35.9c-0.7-12.4-2.2-24.8-1.8-37.3c0.8-28.7,3.5-57.2,10-85.2
		c7.5-32.5,18.5-63.8,33.8-93.4c13.4-25.9,29.1-50.3,47.8-72.7c9.1-10.8,18.3-21.5,28.5-31.3c24.6-23.7,51.5-44.3,81.3-61.3
		c20.3-11.5,41.3-21.4,63.1-29.3c23.4-8.5,47.5-14.8,72.1-18.6c15.8-2.5,31.9-3.5,47.9-4.6c14.5-1,28.9-0.1,43.3,0.6
		c19.3,1,38.4,4.3,57.4,8.3c21.8,4.6,43,11.1,63.7,19.5c24.2,9.8,47.4,21.7,69.3,36.1c26.2,17.2,50.3,37,71.9,59.7
		c17.5,18.5,33.2,38.3,46.8,59.9c7.1,11.3,13.9,22.7,19.9,34.5c8.8,17.2,16.2,35,22.2,53.3c4.9,14.8,9.2,29.8,12.3,45.1
		c3,14.8,5,29.7,6.7,44.6c1.9,16.9,2.3,33.8,1.7,50.8c-0.4,13.4-1.8,26.7-3.5,40c-2.9,22.3-7.5,44.1-14.3,65.5
		c-4.7,14.9-9.8,29.6-16.2,43.9c-11,24.3-24,47.4-39.6,69.1c-8.7,12.1-17.9,23.8-27.9,35c-7.4,8.2-15,16.1-23,23.6
		c-24.4,23.2-51.3,43.1-80.9,59.3c-21.2,11.6-43,21.7-66,29.4c-13.2,4.4-30.3-1.2-29.6-21.3c0.4-11.8-0.6-23.7,0.2-35.5
		c1.7-25.1,0.7-50.3,0.7-75.4c0-17.6-3.9-34.6-11.8-50.4c-3.1-6.1-7.5-11.4-11.9-16.5c-0.7-0.8-2.1-1.4-1.5-2.8
		c0.5-1.1,1.7-0.6,2.7-0.8c21.9-2.9,43.5-6.8,64.5-14c26.9-9.2,50.8-23.1,70-44.3c16.8-18.6,27.4-40.5,34.2-64.5
		c4.5-16,6.7-32.3,8.1-48.9c2.1-25.4,1.5-50.5-6.3-74.9c-6.3-19.8-16.2-37.8-30.3-53.3c-2.3-2.6-3.1-5-2-8.1
		c5.8-16.6,7.5-33.7,6.3-51.1c-1.1-16.6-4.5-32.8-10.8-48.3c-1.5-3.7-4.9-3.6-8-3.6c-13.4,0.2-26.3,3.2-38.8,7.8
		c-21.6,8-41.6,19.2-60.7,32.1c-2.2,1.5-4.2,1.9-6.9,1.2c-14.3-4.1-29-6.9-43.8-9c-22.2-3.2-44.7-3.7-67.1-3.2
		c-15.6,0.4-31,2.4-46.4,4.6c-12.5,1.8-24.7,4.8-36.9,7.8c-2.2,0.5-3.4-0.2-5-1.2c-12-8-24.3-15.8-37.3-22
		c-16.9-8.1-34.1-15.7-53.2-17.4c-4.6-0.4-9.1-1.1-13.8-0.2c-2.7,0.6-3.9,1.9-4.7,4.3c-4.7,14.2-8.1,28.6-9.7,43.6
		c-1.9,18.9,0.6,37,6.3,54.9c0.8,2.4,0.8,4.1-1.1,6.2c-16.5,18.6-27.7,39.9-34,64c-4.7,18.4-5.9,37.1-4.8,55.8
		c1.3,23.2,4.2,46.2,11.9,68.3c8.6,24.9,21.5,47.2,41.3,64.9c17.8,16,38.3,27.2,61.1,34.6c12.6,4.1,25.4,7.6,38.5,10
		c7.8,1.5,15.7,2.6,23.5,3.5c3.2,0.4,4.8,1,2.1,4c-12.3,13.7-18.3,30.2-21.5,47.9c-0.4,2.5-2.1,3.2-3.9,4c-12.8,5.4-26.2,8.7-40,9
		c-20.5,0.4-38.7-6.2-54.1-20.2c-9.9-9-16-20.7-23.8-31.2c-12.9-17.3-29.2-29.4-50.8-33c-5.7-1-11.6-0.9-17.3,0.8
		c-6.3,1.9-7.6,7.1-3.2,12.2c5.4,6.3,12.7,10.1,19.1,15c11.2,8.6,19.9,19.4,27.1,31.6c4.8,8.1,8,16.8,12,25.2
		c10.2,21.5,27.2,35.2,49.3,43.1c10.1,3.6,20.5,5,31.1,5.9c16.6,1.4,32.7-0.5,48.8-3.8c2.3-0.5,3.4,0,4.1,2.2
		c0.6,1.8,0.6,3.6,0.6,5.4C305.5,709.5,305.5,720.6,305.5,731.8z"/>
	<path class="st0" d="M264,663.3c-5.6,0-8.6-2.1-8.5-6.1c0-3.4,3.4-5.9,8.3-5.9c4.3-0.1,8.6,2.8,8.7,5.9
		C272.6,660.3,268.4,663.3,264,663.3z"/>
	<path class="st0" d="M229.7,646.3c5.6,0.1,9.8,3,9.8,7c-0.1,4.8-3.5,4.9-7,5c-4.8,0.1-9.9-3.8-9.9-7.3
		C222.6,648.4,225.8,646.3,229.7,646.3z"/>
	<path class="st0" d="M293.8,659.4c-4-0.2-7.5-0.8-8-4.5c-0.5-3.6,2.6-5.4,5.6-6.6c1.2-0.5,2.5-0.8,3.8-0.9c3.2-0.1,6.2,0.9,7.1,4.2
		c1,3.8-1.8,5.8-4.8,7.1C296.2,659.3,294.6,659.3,293.8,659.4z"/>
	<path class="st0" d="M210.5,637.4c0.1,3.8-1.2,6-4.8,5.9c-4.1-0.1-9.1-5.5-9.2-9.6c-0.1-3.4,1.7-5,4.7-5.2
		C205.3,628.3,210.5,633.7,210.5,637.4z"/>
	<path class="st0" d="M177.5,611.4c0-3.1,1.4-5,4.7-5c4,0,8.1,4.5,8.1,9.2c0,2.6-1.2,4.8-4.4,4.8
		C181.7,620.3,177.5,615.7,177.5,611.4z"/>
	<path class="st0" d="M173.5,593.4c0.2,2.5-1,4-4,3.9c-3.7-0.1-7-3.4-7-7.4c0-2.2,0-4.5,3.1-4.5
		C168.8,585.3,173.4,589.9,173.5,593.4z"/>
</g>
</svg>
