<svg id="Layer_1" data-name="Layer 1" xmlns="http://www.w3.org/2000/svg" viewBox="0 0 446.39 84"><defs><style>.cls-1{fill:#e41e26;}</style></defs><title>mahadflix-logo</title><path class="cls-1" d="M87.84,192.23h18.84q4.16,29.34,8.37,58.68h.24q4.18-29.34,8.43-58.67h18.84l-.06,80.22c-5,.3-7.48.45-12.47.77q0-30.66,0-61.32h-.24q-4.86,31-9.63,62c-4.41.29-6.62.45-11,.76q-4.82-31.11-9.58-62.22h-.24q0,31.47,0,62.94c-4.6.34-6.9.52-11.5.88Z" transform="translate(-87.84 -192.23)"/><path class="cls-1" d="M167.4,192.23h17.88Q192,231,198.89,269.67c-5.28.21-7.92.32-13.2.55-.95-6.15-1.43-9.23-2.39-15.4V255c-6,.22-9,.33-15,.58-1,6.21-1.44,9.31-2.41,15.54l-12.24.65Q160.47,232,167.4,192.23Zm14.35,52.26L175.9,205.9h-.24l-5.79,39Z" transform="translate(-87.84 -192.23)"/><path class="cls-1" d="M210.11,192.23h13.2q0,15.59,0,31.18c5.67-.07,8.5-.11,14.16-.16q0-15.51,0-31h13.2q0,37.94,0,75.87c-5.28.11-7.92.17-13.21.31l0-34.28c-5.67.08-8.5.12-14.17.22q0,17.24,0,34.46c-5.28.17-7.93.25-13.21.44Z" transform="translate(-87.84 -192.23)"/><path class="cls-1" d="M275.51,192.23h17.88l13.68,75.23-13.21.05-2.4-14.94v.22c-6,0-9,.06-15,.11l-2.4,14.8c-4.9.06-7.35.1-12.25.18Q268.64,230.05,275.51,192.23Zm14.39,50.35Q287,224,284,205.36h-.24Q280.91,224,278,242.65Z" transform="translate(-87.84 -192.23)"/><path class="cls-1" d="M318.23,192.23h20.16q9.84,0,14.76,4.75c3.28,3.16,4.93,7.82,4.93,13.94q0,19.11,0,38.24,0,9.18-4.92,13.86c-3.28,3.12-8.2,4.63-14.77,4.57-8.07-.08-12.1-.1-20.17-.12Q318.24,229.85,318.23,192.23Zm19.94,64.59a6.72,6.72,0,0,0,5-1.68c1.16-1.13,1.74-3,1.74-5.58q0-19.62,0-39.23c0-2.59-.59-4.46-1.74-5.61a6.84,6.84,0,0,0-5-1.73h-6.72q0,26.88,0,53.78Z" transform="translate(-87.84 -192.23)"/><path class="cls-1" d="M371.75,192.23h34.92v11L385,203.11c0,8.49,0,12.74,0,21.23,6.82.07,10.23.11,17,.21V235.5c-6.81-.12-10.22-.18-17-.28q0,16.6,0,33.2c-5.28-.14-7.92-.2-13.21-.31Q371.78,230.16,371.75,192.23Z" transform="translate(-87.84 -192.23)"/><path class="cls-1" d="M417.83,192.23H431l.06,66.65c8.69.32,13,.49,21.72.86,0,4.5,0,6.75,0,11.25q-17.46-.83-34.93-1.52Z" transform="translate(-87.84 -192.23)"/><path class="cls-1" d="M463.91,192.23h13.2l.06,80.08c-5.28-.31-7.92-.45-13.2-.74Z" transform="translate(-87.84 -192.23)"/><path class="cls-1" d="M503.41,232.17q-7.21-20-14.54-39.94h13.92q4.47,13.28,8.89,26.57h.24q4.59-13.27,9.11-26.58h12.48q-7.2,20.25-14.51,40.47,7.69,21.74,15.23,43.53c-5.56-.44-8.34-.65-13.9-1.06q-4.76-14.7-9.6-29.36h-.24q-4.87,14-9.82,28c-5-.34-7.48-.5-12.47-.81Q495.87,252.59,503.41,232.17Z" transform="translate(-87.84 -192.23)"/></svg>