<?xml version="1.0" encoding="utf-8"?>
<!-- Generator: Adobe Illustrator 23.0.3, SVG Export Plug-In . SVG Version: 6.00 Build 0)  -->
<svg version="1.1" id="Layer_1" xmlns="http://www.w3.org/2000/svg" xmlns:xlink="http://www.w3.org/1999/xlink" x="0px" y="0px"
	 viewBox="0 0 776.5 868.1" style="enable-background:new 0 0 776.5 868.1;" xml:space="preserve">
<style type="text/css">
	.st0{fill:#FFFFFF;}
</style>
<path class="st0" d="M426.8,193.8l-72.9-33l53.3-49.5c6.7-6.3,15.7-9.7,24.7-9.3c8.5,0.3,16.2,3.8,21.8,9.9l28.4,30.6L426.8,193.8z"
	/>
<path class="st0" d="M584.7,293.4l-32.6-55.3l-64.7,38.1l8.1,59.4l-29.7,17.5l-8.1-59.4l-81.5,48l8.1,59.4l-29.7,17.5l-8.1-59.4
	l-81.5,48l8.1,59.4l-30.6,18l-8.1-59.4l-91.5,53.9l167,283.5c7.2,12.3,23.2,16.4,35.5,9.2l365.3-215.1c12-7.1,16-22.6,9-34.7
	L584.7,293.4z"/>
<path class="st0" d="M136.9,462.9l-28.4-30.6c-12-13-10.7-33.8,2.8-46.4l30.3-28l72.9,33L136.9,462.9z"/>
<polygon class="st0" points="239.4,367.8 166.5,334.7 235.3,270.9 308.2,303.9 "/>
<polygon class="st0" points="333.1,280.8 260.2,247.7 329,183.9 401.9,216.9 "/>
</svg>
