<?xml version="1.0" encoding="utf-8"?>
<!-- Generator: Adobe Illustrator 23.0.3, SVG Export Plug-In . SVG Version: 6.00 Build 0)  -->
<svg version="1.1" id="Layer_1" xmlns="http://www.w3.org/2000/svg" xmlns:xlink="http://www.w3.org/1999/xlink" x="0px" y="0px"
	 viewBox="0 0 776.5 868.1" style="enable-background:new 0 0 776.5 868.1;" xml:space="preserve">
<style type="text/css">
	.st0{fill:#FFFFFF;}
</style>
<path class="st0" d="M638.4,131.9L564.2,26.4L678.7,1.3c14.5-3.2,29.8-0.6,41.9,7.2c11.5,7.4,19.4,18.6,22.2,31.6l14.4,65.7
	L638.4,131.9z"/>
<path class="st0" d="M776.2,399.4V296H655.1l-37.4,89.1h-55.6l37.3-89.1H447l-37.3,89.1h-55.6l37.4-89.1H239l-37.3,89.1h-57.3
	l37.3-89.1H10.6v530.3c0,23,18.8,41.8,41.8,41.8h683.3c22.5,0,40.8-18.3,40.8-40.8L776.2,399.4z"/>
<path class="st0" d="M15.5,268.5L1.1,202.7c-6-27.8,12.8-55.7,41.9-62.2l65-14.1l74.2,105.5L15.5,268.5z"/>
<polygon class="st0" points="235.7,220.3 161.6,114.7 309.3,82.3 383.5,187.8 "/>
<polygon class="st0" points="437.1,176.1 362.9,70.5 510.6,38.1 584.8,143.6 "/>
</svg>
