<?xml version="1.0" encoding="utf-8"?>
<!-- Generator: Adobe Illustrator 23.0.3, SVG Export Plug-In . SVG Version: 6.00 Build 0)  -->
<svg version="1.1" id="Layer_1" xmlns="http://www.w3.org/2000/svg" xmlns:xlink="http://www.w3.org/1999/xlink" x="0px" y="0px"
	 viewBox="0 0 100 100" style="enable-background:new 0 0 100 100;" xml:space="preserve">
<style type="text/css">
	.st0{fill-rule:evenodd;clip-rule:evenodd;fill:#FFFFFF;}
</style>
<path class="st0" d="M95.8,14.6H4.2c-1.2,0-2.1,0.9-2.1,2.1V75c0,1.2,0.9,2.1,2.1,2.1h91.7c1.2,0,2.1-0.9,2.1-2.1V16.7
	C97.9,15.5,97,14.6,95.8,14.6z M93.8,72.9H6.3V18.8h87.5V72.9z"/>
<path class="st0" d="M31.2,81.3h37.5c1.2,0,2.1,0.9,2.1,2.1s-0.9,2.1-2.1,2.1H31.2c-1.2,0-2.1-0.9-2.1-2.1S30.1,81.3,31.2,81.3z"/>
</svg>
