<?xml version="1.0" encoding="utf-8"?>
<!-- Generator: Adobe Illustrator 23.0.3, SVG Export Plug-In . SVG Version: 6.00 Build 0)  -->
<svg version="1.1" id="Layer_1" xmlns:sketch="http://www.bohemiancoding.com/sketch/ns"
	 xmlns="http://www.w3.org/2000/svg" xmlns:xlink="http://www.w3.org/1999/xlink" x="0px" y="0px" viewBox="0 0 59.6 59.6"
	 style="enable-background:new 0 0 59.6 59.6;" xml:space="preserve">
<title>eye-fill 2</title>
<desc>Created with Sketch.</desc>
<g sketch:type="MSPage">
	<path sketch:type="MSShapeGroup" d="M40.3,40.3c-4,4-9.4,6.3-15.1,6.3S14.1,44.3,10,40.3C1.7,31.9,1.7,18.4,10,10
		c4.2-4.2,9.7-6.3,15.1-6.3s11,2.1,15.1,6.3C48.6,18.4,48.6,31.9,40.3,40.3 M59,56.4L44.2,41.5c8.5-9.9,8.1-24.8-1.3-34.2
		c-9.8-9.8-25.8-9.8-35.6,0s-9.8,25.8,0,35.6c4.8,4.8,11.1,7.4,17.8,7.4c6.1,0,11.8-2.2,16.4-6.1L56.4,59c0.4,0.4,0.8,0.5,1.3,0.5
		s1-0.2,1.3-0.5C59.8,58.3,59.8,57.1,59,56.4"/>
</g>
</svg>
