<svg xmlns="http://www.w3.org/2000/svg" viewBox="0 0 48 60" x="0px" y="0px"><title>Techno2BF</title><path d="M34,30a5,5,0,0,0-3.81,1.8l-10.25-7a5.36,5.36,0,0,0,0-1.6l10.25-7A5,5,0,0,0,34,18a5,5,0,1,0-5-5,5.22,5.22,0,0,0,.23,1.43l-9.92,6.78a6,6,0,1,0,0,5.58l9.92,6.78A5.22,5.22,0,0,0,29,35a5,5,0,1,0,5-5Z"/><text x="0" y="63" fill="#000000" font-size="5px" font-weight="bold" font-family="'Helvetica Neue', Helvetica, Arial-Unicode, Arial, Sans-serif">Created by HideMaru</text><text x="0" y="68" fill="#000000" font-size="5px" font-weight="bold" font-family="'Helvetica Neue', Helvetica, Arial-Unicode, Arial, Sans-serif">from the Noun Project</text></svg>