<?xml version="1.0" encoding="utf-8"?>
<!-- Generator: Adobe Illustrator 23.0.3, SVG Export Plug-In . SVG Version: 6.00 Build 0)  -->
<svg version="1.1" id="Layer_1" xmlns="http://www.w3.org/2000/svg" xmlns:xlink="http://www.w3.org/1999/xlink" x="0px" y="0px"
	 viewBox="0 0 776.5 868.1" style="enable-background:new 0 0 776.5 868.1;" xml:space="preserve">
<style type="text/css">
	.st0{fill:#D6D6D6;}
	.st1{fill:#4B4B4B;}
	.st2{fill:#323232;}
	.st3{fill:#424242;}
	.st4{fill:#393939;}
	.st5{fill:#3D3D3D;}
	.st6{fill:#404040;}
	.st7{fill:url(#SVGID_1_);enable-background:new    ;}
	.st8{fill:#3C3C3C;}
	.st9{fill:#373737;}
	.st10{fill:#434343;}
	.st11{fill:#5A5A5A;}
</style>
<path class="st0" d="M426.8,193.8l-72.9-33l53.3-49.5c6.7-6.3,15.7-9.7,24.7-9.3c8.5,0.3,16.2,3.8,21.8,9.9l28.4,30.6L426.8,193.8z"
	/>
<path class="st0" d="M584.7,293.4l-32.6-55.3l-64.7,38.1l8.1,59.4l-29.7,17.5l-8.1-59.4l-81.5,48l8.1,59.4l-29.7,17.5l-8.1-59.4
	l-81.5,48l8.1,59.4l-30.6,18l-8.1-59.4l-91.5,53.9l167,283.5c7.2,12.3,23.2,16.4,35.5,9.2l365.3-215.1c12-7.1,16-22.6,9-34.7
	L584.7,293.4z"/>
<path class="st0" d="M136.9,462.9l-28.4-30.6c-12-13-10.7-33.8,2.8-46.4l30.3-28l72.9,33L136.9,462.9z"/>
<polygon class="st0" points="239.4,367.8 166.5,334.7 235.3,270.9 308.2,303.9 "/>
<polygon class="st0" points="333.1,280.8 260.2,247.7 329,183.9 401.9,216.9 "/>
<g>
	<g>
		<path class="st1" d="M477.4,422c1.8,3.2,3.4,6.5,5.1,9.8c3,5.9,6,11.9,9.1,17.8c1.5,2.9,2.9,5.8,4.4,8.7c3,5.9,6,11.7,9,17.6
			c3,5.8,5.9,11.6,8.9,17.4c3,5.9,5.9,11.7,9,17.6c2.9,5.7,5.8,11.4,8.7,17.1c3,5.9,6,11.7,9,17.6c3,5.8,5.9,11.6,8.9,17.4
			c1.5,2.9,3,5.9,4.5,8.8c0.1,0.3,0.2,0.6,0.5,0.7c0,0.1,0,0.1,0,0.2c-2.4,0.9-4.8,1.7-7.1,2.6c-2.5,1-5.1,1.9-7.6,2.9
			c-0.9,0.3-1.7,0.8-2.6,1.1c-1.4,0.5-2.7,1.4-4.2,1.7c-0.4,0.1-0.7,0.4-1,0.6c-2.5,1.1-5,2.1-7.5,3.4c-0.5,0.3-0.8-0.1-1-0.5
			c-0.6-1.2-1.2-2.4-1.8-3.5c-2.1-4.2-4.3-8.5-6.5-12.7c-3-5.8-6-11.7-9-17.6c-1.8-3.5-3.6-7-5.4-10.5c-0.1-0.2-0.2-0.5-0.3-0.8
			c-0.8-2.9-1.1-5.9-1.6-8.8c-0.9-5.7-1.7-11.4-2.7-17.1c-1.2-6.7-2.5-13.4-4-20.1c-1.8-7.8-3.5-15.5-5.2-23.3
			c-1.3-6.1-2.6-12.3-4-18.4c-0.7-3.3-1.4-6.7-2.2-10c-0.5-2.3-1-4.7-1.5-7c-0.1-0.5-0.3-0.9-0.5-1.3c0-0.1-0.1-0.2-0.1-0.3
			c-0.2-2.3-1-4.5-1.3-6.8c0-0.3-0.2-0.6-0.4-0.8c-0.1-1-0.7-1.9-0.5-2.9C476.7,422,476.9,421.8,477.4,422z"/>
		<path class="st2" d="M476.4,420c0.1,0.2,0.1,0.4,0.2,0.6c-0.3,0.6,0.3,1.1,0,1.7c-0.3,0.8,0.4,1.5,0.3,2.3
			c0.3,2.1,0.5,4.3,0.7,6.4c0.4,2.9,1,5.8,1.4,8.8c0.5,3.6,1.2,7.1,1.8,10.7c1.7,10.2,3.3,20.4,5,30.5c1.2,7.3,2.1,14.7,3.1,22
			c0.7,5.1,1.3,10.3,2,15.4c0.1,0.5,0.4,1.2-0.5,1.4c-1.9-3.8-3.9-7.6-5.8-11.4c-0.4-0.7-0.3-1.6-0.5-2.4c-0.4-2.9-0.8-5.8-1.3-8.7
			c-0.6-4.3-1.2-8.6-1.8-13c-0.4-2.9-0.9-5.7-1.3-8.6c-0.5-3.7-1-7.4-1.5-11.1c-0.3-1.9-0.7-3.8-0.9-5.7c-0.1-1.4-0.4-2.9-0.6-4.3
			c-0.4-3-0.9-5.9-1.3-8.9c-0.4-2.7-0.6-5.5-1.1-8.2c-0.3-1.6-0.5-3.2-0.7-4.8c-0.4-2.5-0.7-4.9-1.1-7.4c-0.1-0.6,0.1-1.1,0.5-1.5
			c1.1-1.2,2.1-2.5,3.1-3.7C476.3,420,476.4,420,476.4,420z"/>
		<path class="st3" d="M479,433c0.5,0.8,0.7,1.8,0.9,2.7c1.1,4.6,2.1,9.2,3.1,13.9c1.3,5.7,2.5,11.4,3.8,17.2
			c1.2,5.6,2.4,11.1,3.6,16.7c1,4.5,2.1,9.1,3.1,13.6c1.1,4.9,1.9,9.8,2.8,14.7c1.2,6.4,2.1,12.8,3.1,19.3c0.4,2.8,1.1,5.5,1,8.3
			c-1.2-2.3-2.4-4.6-3.5-6.9c-0.8-3.3-1.1-6.7-1.6-10.1c-0.8-5.2-1.6-10.5-2.4-15.7c-0.8-4.9-1.7-9.7-2.6-14.5
			c-0.7-3.9-1.4-7.7-2.2-11.5c-0.9-4.3-1.6-8.6-2.6-12.9c-0.9-4.2-1.7-8.4-2.5-12.6c-0.9-4.3-1.8-8.7-2.7-13c-0.6-2.7-1-5.4-1.7-8
			C478.5,433.7,478.5,433.2,479,433z"/>
		<path class="st4" d="M490.4,519.7c0.3-1.3-0.1-2.5-0.3-3.8c-0.7-5.6-1.4-11.2-2.2-16.9c-0.6-4.2-1.1-8.4-1.7-12.6
			c-0.9-6.1-1.9-12.2-2.9-18.4c-0.9-5.3-1.7-10.6-2.6-15.9c-1.1-6.5-2.1-13-3.1-19.6c-0.4-2.5-0.7-5-1-7.5c0-0.3,0-0.6,0-0.9
			c0.2-0.1,0.4,0.1,0.4,0.3c0,0.5,0.3,0.9,0.4,1.3c0.3,1.5,0.6,3.1,1,4.6c0.1,0.9,0,1.9,0.2,2.8c0.1,0.3,0.1,0.6,0.2,0.9
			c0,0.1,0,0.2,0,0.3c1,4.6,1.5,9.2,2.4,13.8c0.8,3.8,1.5,7.5,2.2,11.3c0.8,4.9,1.8,9.8,2.7,14.8c1,5.5,2.1,11,3,16.5
			c0.8,4.6,1.3,9.2,2,13.8c0.8,5.5,1.4,11.1,2.3,16.6c0.2,1,0.3,2,0.4,3c0,0.4,0.2,1.1-0.6,1.1C492.3,523.5,491.3,521.6,490.4,519.7
			z"/>
		<path class="st5" d="M493.3,525.3c0.2-0.3,0.2-0.7,0.2-1.1c-1.1-7.1-1.9-14.2-3-21.3c-0.6-4.1-1.2-8.2-1.8-12.3
			c-0.6-3.9-1.5-7.8-2.1-11.7c-1.1-6.7-2.5-13.4-3.6-20.1c-1.2-7.1-2.7-14.1-3.8-21.1c-0.2-1.1-0.5-2.2-0.5-3.4
			c0.6,0.4,0.5,1.1,0.6,1.7c0.9,4.8,1.9,9.7,2.9,14.5c1,4.9,1.9,9.9,2.9,14.8c0.5,2.7,1.1,5.3,1.6,8c0.9,5.1,2,10.2,3,15.3
			c0.8,4.6,1.7,9.1,2.5,13.7c0.7,4,1.3,8,1.8,12c0.6,4.6,1.2,9.3,1.9,13.9c0.1,0.6,0.3,1.2-0.4,1.7
			C494.7,528.3,494,526.8,493.3,525.3z"/>
		<path class="st6" d="M495.6,529.8c-0.1-2-0.5-3.9-0.7-5.9c-0.7-4.9-1.3-9.8-2-14.7c-0.8-5.6-1.9-11.2-2.8-16.8
			c-1-5.7-2.2-11.3-3.2-17c-0.9-4.9-1.9-9.8-2.8-14.7c-1.2-6.4-2.4-12.8-3.7-19.2c-0.5-2.4-0.8-4.9-1.6-7.2c0-0.1,0-0.1,0-0.2
			c-0.3-0.7-0.5-1.4-0.3-2.2c0.3-0.3,0.4,0,0.4,0.2c0.1,0.3,0.1,0.6,0.2,0.9c0,0,0,0,0,0c-0.1,0.4-0.1,0.8,0,1.2
			c1.3,6.3,2.6,12.5,3.9,18.8c1.5,7.4,2.8,14.8,4.4,22.1c1.6,7.8,3.2,15.7,4.7,23.6c1.1,5.9,2.1,11.8,2.9,17.7
			c0.6,3.9,1.2,7.8,1.8,11.8c0.2,1.1,0.3,2.2,0.4,3.3c0,0.3,0,0.6-0.2,0.9C496.4,531.6,495.9,530.7,495.6,529.8z"/>
		<path class="st6" d="M476.4,422.2c-0.1-0.6-0.6-1.2,0.2-1.7c0.3,0.5,0.6,1,0.7,1.5c-0.3,0.1-0.5,0.3-0.6,0.6
			C476.4,422.7,476.6,422.3,476.4,422.2z"/>
		<path class="st3" d="M479,433c-0.3-0.3-0.3-0.8-0.6-1.1c-0.6-0.4-0.4-1-0.6-1.5c-0.2-1.6-0.5-3.1-0.7-4.7c-0.2-0.3,0-0.4,0.2-0.6
			c0.6,1,0.6,2.3,0.9,3.4C478.6,430,479,431.5,479,433z"/>
		<path class="st5" d="M477.4,425.2c-0.1,0.2-0.1,0.4-0.2,0.6c-0.3-0.4-0.1-1.1-0.6-1.5c0.2-0.7-0.5-1.3-0.2-2
			c0.1,0.1,0.2,0.2,0.4,0.4C476.8,423.5,477.1,424.3,477.4,425.2z"/>
		<path class="st5" d="M477.9,430.4c0.2,0.5,0.4,1,0.6,1.5c-0.1,0.8,0.1,1.5,0.2,2.2C478,432.9,478,431.7,477.9,430.4z"/>
	</g>
	
		<linearGradient id="SVGID_1_" gradientUnits="userSpaceOnUse" x1="422.7433" y1="849.9249" x2="293.8664" y2="901.9946" gradientTransform="matrix(0.8906 -0.4548 0.4548 0.8906 -239.6993 -103.9407)">
		<stop  offset="0.7626" style="stop-color:#555555"/>
		<stop  offset="1" style="stop-color:#1C1C1C"/>
	</linearGradient>
	<polyline class="st7" points="447.3,434.5 475.3,603.1 505,595.6 476.1,419.7 	"/>
	<g>
		<path class="st1" d="M420.2,640.9c-2.7-5.4-5.5-10.8-8.2-16.3c-3-5.9-6-11.8-9-17.6c-3-5.8-5.9-11.6-8.9-17.5
			c-3-5.9-6-11.8-9-17.6c-3-5.7-5.8-11.4-8.8-17.1c-3-5.8-6-11.7-8.9-17.5c-3-5.9-6-11.8-9-17.6c-2.9-5.8-5.9-11.5-8.8-17.3
			c-2-3.8-4-7.7-5.9-11.5c-0.1-0.2-0.2-0.5-0.3-0.8c0.4-0.6,0.9-0.7,1.3-0.1c0.4,0.5,0.7,1,1.3,1.4c0.1,0.1,0.1,0.1,0.2,0.2
			c0.1,0.1,0.2,0.3,0.3,0.5c0.8,1.3,1.9,2.4,3,3.6c2.1,2.3,4.1,4.6,6.1,7c0.9,1.1,1.9,2.1,2.8,3.1c2.5,2.8,5.1,5.6,7.6,8.4
			c2.2,2.4,4.4,4.8,6.6,7.1c2.7,2.9,5.4,5.9,8,8.8c3.5,3.8,6.9,7.6,10.3,11.5c2.2,2.5,4.5,4.9,6.7,7.4c3,3.3,6.1,6.5,9.3,9.7
			c3.4,3.4,6.9,6.8,10.4,10.2c3,2.9,6.1,5.6,8.8,8.7c2.2,4.1,4.2,8.2,6.3,12.3c3.1,6,6.1,12.1,9.3,18.1c1.4,2.7,2.8,5.5,4.2,8.2
			c1,2,2,4,3.1,6c0.3,0.6,0.3,0.9-0.3,1.3c-1.3,0.7-2.5,1.4-3.8,2.1c-2.2,1.3-4.4,2.5-6.5,3.9c-2.4,1.5-4.8,3-7.2,4.5
			c-2.1,1.3-4.2,2.6-6.2,4c-1.4,1-2.9,1.9-4.2,2.9C420.4,640.9,420.3,640.9,420.2,640.9z"/>
		<path class="st2" d="M342.7,489c-0.1-0.1-0.2-0.3-0.4-0.4c0-0.1,0-0.1,0-0.2c1.9-0.3,3.7-0.4,5.6-0.6c0.7-0.1,1,0.5,1.4,0.9
			c1.9,1.8,3.8,3.7,5.7,5.5c2.2,2.1,4.5,4.1,6.7,6.3c1.8,1.8,3.7,3.4,5.5,5.2c1.8,1.7,3.7,3.5,5.5,5.2c2.1,1.9,4,3.9,6.1,5.8
			c1.5,1.4,3,2.8,4.4,4.2c1.8,1.7,3.7,3.5,5.5,5.2c2.6,2.4,5.1,4.9,7.7,7.3c2.3,2.1,4.5,4.3,6.8,6.4c2,1.9,4.1,3.8,6.1,5.8
			c0.6,0.6,0.9,1.3,1.3,2c1.6,3,3.1,6,4.6,9c-0.3,0.4-0.6,0.3-1,0.1c-0.6-0.4-1.1-0.9-1.6-1.4c-4-3.9-8.3-7.6-12.4-11.5
			c-1.2-1.1-2.3-2.2-3.5-3.3c-2.4-2.3-4.9-4.5-7.3-6.8c-4.8-4.7-9.6-9.3-14.4-14c-2.5-2.4-5-4.8-7.4-7.2c-2.3-2.2-4.5-4.5-6.8-6.7
			c-3.4-3.3-6.7-6.7-10.2-9.9c-1.6-1.5-3.3-2.8-4.8-4.4c-0.2-0.2-0.5-0.3-0.7-0.5C344.7,490.2,343.8,489.5,342.7,489z"/>
		<path class="st8" d="M346.1,492.2c-0.1-0.1-0.1-0.2-0.2-0.4c0.4-0.4,0.6,0,0.8,0.2c2.4,2.4,5,4.7,7.4,7.1c3.1,3.2,6.4,6.2,9.5,9.4
			c4,4.2,8.2,8.2,12.2,12.4c2.5,2.6,5.1,5.2,7.6,7.8c3.3,3.4,6.6,6.8,10,10.2c4.4,4.3,8.9,8.4,13.4,12.6c1.6,1.5,3.2,3,4.8,4.5
			c1.5,1.4,3.1,2.8,4.7,4.3c0.6,0.5,0.9,1.2,1.6,1.6c1.1,2.2,2.2,4.4,3.4,6.5c-0.5,0.5-0.8,0.2-1.2-0.1c-0.8-0.8-1.6-1.5-2.4-2.3
			c-2.9-2.8-5.9-5.6-8.9-8.4c-3.4-3.2-6.8-6.4-10-9.7c-3.4-3.5-6.9-7-10.3-10.6c-4.1-4.4-8.3-8.8-12.5-13.2c-1.9-2-3.8-4-5.7-6
			c-2.2-2.3-4.4-4.6-6.6-7.1c-0.7-0.8-1.5-1.6-2.3-2.3c-1-1-1.9-2.2-2.9-3.2c-1.1-1.1-2-2.3-3.2-3.2c-0.5-0.3-0.7-0.9-1.2-1.2
			c-1-1.2-2-2.4-3.2-3.4C349.4,495.7,347.7,493.9,346.1,492.2z"/>
		<path class="st9" d="M417.9,561.8c-1.2-0.1-1.7-1.1-2.4-1.7c-2.9-2.7-5.8-5.4-8.7-8.1c-1-0.9-2-1.8-2.9-2.7
			c-4.9-4.7-10-9.3-14.7-14.1c-4.2-4.3-8.5-8.5-12.6-12.8c-3.2-3.4-6.6-6.6-9.9-10c-4.6-4.8-9.3-9.4-13.9-14.1
			c-1.9-2-3.9-3.8-5.8-5.8c-0.3-0.3-0.6-0.6-1-0.6c0,0,0,0,0,0c-0.1-0.3-0.7-0.5-0.4-0.9c1.4,0.8,2.4,2.1,3.6,3.1
			c5.5,4.9,10.8,10.1,16.1,15.3c2.5,2.5,5,4.9,7.5,7.3c3.2,3,6.2,6.2,9.4,9.2c3.2,3,6.3,6.1,9.5,9.1c2.8,2.6,5.7,5.1,8.4,7.8
			c4.5,4.4,9.2,8.4,13.6,12.8c0.5,0.5,1,1.1,1.8,1.2C416.2,558.3,417,560,417.9,561.8z"/>
		<path class="st10" d="M346.1,492.2c1.9,1.5,3.5,3.3,5,5.2c0.9,0.9,1.8,1.9,2.6,2.8c0.2,0.2,0.4,0.5,0.6,0.7
			c3.4,3.5,6.7,7.2,10,10.7c1.8,1.9,3.5,3.8,5.3,5.7c1.9,2,3.8,3.9,5.6,5.9c2,2.1,4,4.2,6,6.4c1.8,1.9,3.6,3.9,5.4,5.8
			c3.5,3.7,7,7.5,10.6,11.2c4.2,4.4,8.6,8.7,12.9,12.9c1.5,1.5,3.1,3,4.6,4.5c1.8,1.8,3.8,3.6,5.8,5.3c0.8,0.7,1.4,1.5,2.1,2.3
			c1.2,2,2.3,4,3.2,6.2c-0.6-0.2-1-0.6-1.5-1c-1.4-1.3-2.8-2.7-4.2-4.1c-3.1-2.9-6.1-6-9.2-8.9c-3.3-3.1-6.4-6.4-9.6-9.6
			c-3.2-3.3-6.2-6.7-9.3-10.1c-2.5-2.6-4.7-5.5-7.2-8.1c-3.5-3.6-6.8-7.4-10.1-11.2c-2-2.2-4-4.4-6-6.6c-3-3.3-5.9-6.6-8.9-9.9
			c-2.2-2.5-4.4-4.9-6.6-7.4c-2.4-2.6-4.7-5.3-7-8C346.3,492.6,346.2,492.4,346.1,492.2z"/>
		<path class="st3" d="M422.8,571.5c-1.3-0.4-2-1.6-3-2.4c-3-2.4-5.6-5.2-8.4-7.9c-2.7-2.5-5.3-5.2-7.9-7.8
			c-3.3-3.4-6.7-6.8-10-10.2c-3.1-3.3-6.2-6.6-9.3-9.9c-2.6-2.7-5.2-5.4-7.7-8.2c-3.8-4.2-7.8-8.3-11.6-12.5c-3-3.3-6-6.5-9-9.7
			c-0.6-0.6-1.1-1.3-1.6-1.9c-0.1,0-0.1-0.1-0.1-0.1c0,0,0-0.1,0.1-0.1c0.6,0.2,0.8,0.7,1.2,1.1c3.7,3.9,7.5,7.7,11.1,11.7
			c2.9,3.2,6,6.2,8.9,9.3c4.3,4.5,8.5,8.9,12.7,13.5c1.2,1.3,2.4,2.5,3.6,3.7c2.9,3,5.8,6,8.7,8.9c5.4,5.5,11.1,10.6,16.7,16
			c1,0.9,1.9,1.8,2.9,2.8c0.3,0.3,0.6,0.6,1,0.6C421.8,569.4,422.5,570.3,422.8,571.5z"/>
		<path class="st8" d="M345.5,490.8c0.1,0.3,0.2,0.6,0.4,0.9c-0.6-0.2-1-0.8-1.4-1.3c-0.4-0.5-0.7-0.6-1.3-0.3
			c-0.3-0.3-0.5-0.7-0.5-1.1c0.4-0.3,0.7-0.1,1,0.2C344.3,489.7,344.9,490.3,345.5,490.8z"/>
		<path class="st10" d="M354.3,500.7c0,0.1,0,0.1,0,0.2c-1.2-1.1-2.3-2.2-3.2-3.5C352.4,498.3,353.4,499.5,354.3,500.7z"/>
	</g>
	<path class="st11" d="M372.4,472.9l-30,15.3l129.5,122.3c13.2-7.5,33.2-14.9,33.2-14.9L372.4,472.9z"/>
</g>
</svg>
